<?xml version="1.0" encoding="UTF-8" standalone="no"?>
<!DOCTYPE svg  PUBLIC '-//W3C//DTD SVG 1.1//EN'  'http://www.w3.org/Graphics/SVG/1.1/DTD/svg11.dtd'>
<svg xmlns="http://www.w3.org/2000/svg">
<defs>
<font id="GrotesqueMTStd-BoldExtended" horiz-adv-x="667">
<font-face underline-position="-50" font-weight="700" descent="-200" panose-1="2 11 5 6 2 1 3 7 2 4" units-per-em="1000" unicode-range="U+0020-25CA" font-stretch="expanded" bbox="-221 -250 1452 943" x-height="490" underline-thickness="50" font-family="Grotesque MT Std Bold Ext" ascent="800" cap-height="689"/>
<missing-glyph horiz-adv-x="1000"/>
<glyph glyph-name=".notdef" horiz-adv-x="1000"/>
<glyph glyph-name=".null" horiz-adv-x="0"/>
<glyph glyph-name="nonmarkingreturn" horiz-adv-x="333"/>
<glyph glyph-name="space" horiz-adv-x="300" unicode=" "/>
<glyph glyph-name="exclam" horiz-adv-x="323" unicode="!" d="M74 0v179h169v-179h-169zM201 256h-78q-5 37 -28 134t-23 161q0 94 27 138h132q20 -49 20 -118q0 -68 -23.5 -174.5t-26.5 -140.5z"/>
<glyph glyph-name="quotedbl" horiz-adv-x="333" unicode='&quot;' d="M15 429v271h120v-271h-120zM198 429v271h120v-271h-120z"/>
<glyph glyph-name="numbersign" d="M392 408h-91l-16 -116h91zM552 292l-4 -95h-86l-27 -197h-100l27 197h-91l-27 -197h-100l27 197h-85l4 95h95l16 116h-85l4 95h94l27 197h100l-27 -197h91l27 197h100l-27 -197h77l-4 -95h-86l-16 -116h76z" unicode="#"/>
<glyph glyph-name="dollar" horiz-adv-x="719" unicode="$" d="M316 673v22h86l-1 -23q122 -7 181 -62t67 -137h-139q-17 72 -109 83v-151q93 -13 143.5 -32.5t82.5 -51.5q50 -50 50 -123q0 -90 -73 -146t-198 -56h-6v-102h-85v101h-4q-65 0 -116 19t-78 46t-45 62t-23.5 59.5t-6.5 46.5h132q2 -49 39 -79.5t102 -33.5v156 q-156 24 -211 79q-52 52 -52 129q0 76 70 132.5t194 61.5zM400 256v-143q69 3 95 24.5t26 45.5q0 32 -29.5 49t-91.5 24zM314 419v141q-51 -1 -82 -19.5t-31 -52.5q0 -56 113 -69z"/>
<glyph glyph-name="percent" horiz-adv-x="1010" unicode="%" d="M238 411q37 0 58.5 26.5t21.5 77.5q0 110 -80 110q-84 0 -84 -108q0 -54 23 -80t61 -26zM238 332q-91 0 -148 52.5t-57 129.5q0 84 55 137t149 53q91 0 146.5 -53t55.5 -134q0 -78 -57 -131.5t-144 -53.5zM253 -38l421 741h83l-422 -741h-82zM775 334q91 0 146.5 -53 t55.5 -134q0 -78 -57 -131.5t-144 -53.5q-91 0 -148 52.5t-57 129.5q0 84 55 137t149 53zM776 255q-84 0 -84 -108q0 -54 23 -80t61 -26q37 0 58.5 26.5t21.5 77.5q0 110 -80 110z"/>
<glyph glyph-name="ampersand" horiz-adv-x="917" unicode="&amp;" d="M907 102v-97q-52 -16 -106 -16q-118 0 -220 82q-53 -36 -106.5 -55.5t-86.5 -23.5t-78 -4q-66 0 -115.5 15.5t-74.5 36.5t-40 47.5t-18.5 42.5t-3.5 28q0 23 8 46t29.5 54.5t72 62.5t124.5 56q-49 63 -49 134q0 28 12.5 58.5t35.5 58.5t63.5 46t90.5 18 q101 0 150.5 -50.5t49.5 -116.5q0 -48 -34 -95.5t-99 -70.5q46 -50 105 -104q62 52 95 143h121q-44 -131 -133 -220q86 -76 185 -76h22zM493 150l-141 142q-59 -23 -82.5 -47t-23.5 -52q0 -37 33 -60.5t83 -23.5q72 0 131 41zM459 598q-33 0 -53.5 -19t-20.5 -51 q0 -20 17 -45.5t38 -43.5q93 27 93 91q0 30 -22 49t-52 19z"/>
<glyph glyph-name="quotesingle" horiz-adv-x="222" unicode="&apos;" d="M51 429v271h120v-271h-120z"/>
<glyph glyph-name="parenleft" horiz-adv-x="438" unicode="(" d="M385 -99v-77q-44 1 -98 28.5t-107 78t-89 137t-36 188.5q0 104 32.5 189t84.5 136t106 80.5t108 39.5v-81q-149 -92 -149 -368q0 -129 37.5 -221.5t110.5 -129.5z"/>
<glyph glyph-name="parenright" horiz-adv-x="438" unicode=")" d="M53 -176v77q73 37 110.5 129.5t37.5 221.5q0 276 -149 368v81q54 -10 108 -39.5t106 -80.5t84.5 -136t32.5 -189q0 -102 -36 -188.5t-89 -137t-107 -78t-98 -28.5z"/>
<glyph glyph-name="asterisk" horiz-adv-x="521" unicode="*" d="M236 490l-49 200h142l-52 -198l174 109l47 -133l-205 -13l158 -131l-114 -85l-79 191l-72 -191l-116 81l157 135l-203 6l39 136z"/>
<glyph glyph-name="plus" d="M274 313v193h120v-193h192v-120h-192v-193h-120v193h-192v120h192z" unicode="+"/>
<glyph glyph-name="comma" horiz-adv-x="313" unicode="," d="M71 0v178h171v-108q0 -40 -3 -70.5t-14 -64t-29.5 -56.5t-51.5 -39.5t-78 -19.5v70q66 39 67 110h-62z"/>
<glyph glyph-name="hyphen" horiz-adv-x="458" unicode="-" d="M70 174v144h318v-144h-318z"/>
<glyph glyph-name="period" horiz-adv-x="313" unicode="." d="M71 0v181h171v-181h-171z"/>
<glyph glyph-name="slash" horiz-adv-x="365" unicode="/" d="M28 -165l176 854h102l-178 -854h-100z"/>
<glyph glyph-name="zero" horiz-adv-x="729" unicode="0" d="M46 340q0 165 79 255.5t240 90.5q318 0 318 -353q0 -166 -78 -257.5t-241 -91.5q-318 0 -318 356zM366 559q-74 0 -104 -55.5t-30 -165.5q0 -227 132 -227q73 0 103 57t30 171q0 110 -29.5 165t-101.5 55z"/>
<glyph glyph-name="one" horiz-adv-x="531" unicode="1" d="M72 493v86q79 3 124.5 36t59.5 74h117v-689h-183v493h-118z"/>
<glyph glyph-name="two" horiz-adv-x="729" unicode="2" d="M243 355h-135q-16 47 -16 97q0 103 76 168.5t196 65.5q140 0 208 -64t68 -152q0 -35 -13 -65.5t-33 -57t-65.5 -62t-89.5 -65t-126 -82.5h326v-138h-539v73q49 41 116 97t110 91.5t61 53.5q37 36 52 66.5t15 70.5q0 51 -31 82.5t-87 31.5q-53 0 -84.5 -35t-31.5 -87 q0 -46 23 -89z"/>
<glyph glyph-name="three" horiz-adv-x="729" unicode="3" d="M256 291v107q47 -5 72 -5q56 0 87.5 24.5t31.5 68.5q0 38 -32 63t-75 25q-48 0 -80.5 -27.5t-31.5 -85.5h-142q0 44 14 82t44.5 71.5t87 52.5t134.5 19q111 0 187.5 -47.5t76.5 -140.5q0 -48 -41 -88t-115 -57q82 -11 134.5 -56.5t52.5 -116.5q0 -102 -83 -150t-218 -48 q-292 0 -292 248h144q-1 -59 32 -97t99 -38q59 0 93.5 27t34.5 77q0 43 -38.5 70.5t-94.5 27.5q-34 0 -82 -6z"/>
<glyph glyph-name="four" horiz-adv-x="729" unicode="4" d="M35 282l300 391h221v-411h142v-117h-142v-145h-181v145h-340v137zM375 262v263l-199 -263h199z"/>
<glyph glyph-name="five" horiz-adv-x="729" unicode="5" d="M228 272h-122q24 143 31 253l9 148h481q-11 -89 -50 -125.5t-131 -36.5q-58 0 -202 19l-14 -138q66 46 165 46q117 0 189.5 -62.5t72.5 -156.5q0 -40 -16 -79t-48.5 -75t-91.5 -58.5t-136 -22.5q-87 0 -140.5 19.5t-92.5 58.5q-58 58 -58 150h154q0 -52 30 -83t84 -31 q64 0 94 36t30 87q0 65 -37.5 94.5t-84.5 29.5q-74 0 -116 -73z"/>
<glyph glyph-name="six" horiz-adv-x="729" unicode="6" d="M649 481h-145q-9 41 -38.5 64.5t-75.5 23.5q-68 0 -104 -46.5t-36 -128.5v-10q74 47 169 47q100 0 172.5 -60.5t72.5 -158.5q0 -95 -74.5 -162.5t-210.5 -67.5q-147 0 -231 92.5t-84 243.5q0 73 19.5 138t57 117t100 82.5t141.5 30.5q72 0 126 -19.5t82.5 -52t42 -65 t16.5 -68.5zM371 100q54 0 85 35t31 87q0 44 -27.5 78t-79.5 34q-60 0 -92.5 -34t-32.5 -87q0 -47 32.5 -80t83.5 -33z"/>
<glyph glyph-name="seven" horiz-adv-x="729" unicode="7" d="M95 514v159h533v-65q-51 -60 -88 -132t-55.5 -131t-29.5 -132.5t-13 -114t-3 -98.5h-191q19 131 68 248.5t133 265.5h-354z"/>
<glyph glyph-name="eight" horiz-adv-x="729" unicode="8" d="M87 503q0 30 12 59t40.5 58.5t87.5 47.5t140 18q71 0 124.5 -15t81 -36t43.5 -48.5t20 -46t4 -35.5q0 -48 -32.5 -88.5t-91.5 -62.5q72 -16 115.5 -61.5t43.5 -105.5q0 -17 -4 -37t-22.5 -51.5t-49.5 -55.5t-91.5 -42t-141.5 -18q-77 0 -135.5 15t-91 37t-53 50.5 t-26.5 51.5t-6 45q0 67 39 107t114 66q-62 24 -91 65t-29 83zM365 95q57 0 89.5 27.5t32.5 73.5t-32 72.5t-91 26.5q-57 0 -90.5 -27.5t-33.5 -74.5q0 -43 32.5 -70.5t92.5 -27.5zM362 394q45 0 72.5 25.5t27.5 64.5q0 40 -29.5 64.5t-71.5 24.5t-69.5 -25t-27.5 -64 q0 -40 27 -65t71 -25z"/>
<glyph glyph-name="nine" horiz-adv-x="729" unicode="9" d="M80 187h145q9 -41 38.5 -64.5t75.5 -23.5q68 0 104 46.5t36 128.5v10q-74 -47 -169 -47q-100 0 -172.5 60.5t-72.5 158.5q0 95 74.5 162.5t210.5 67.5q147 0 231 -92.5t84 -243.5q0 -73 -19.5 -138t-57 -117t-100 -82.5t-141.5 -30.5q-72 0 -126 19.5t-82.5 52t-42 65 t-16.5 68.5zM349 334q60 0 92.5 34t32.5 87q0 47 -32.5 80t-83.5 33q-54 0 -85 -35t-31 -87q0 -44 27.5 -78t79.5 -34z"/>
<glyph glyph-name="colon" horiz-adv-x="313" unicode=":" d="M71 313v177h171v-177h-171zM71 0v177h171v-177h-171z"/>
<glyph glyph-name="semicolon" horiz-adv-x="313" unicode=";" d="M71 0v178h171v-108q0 -51 -6 -88t-23 -75t-54 -60.5t-92 -26.5v70q66 39 67 110h-63zM71 313v177h171v-177h-171z"/>
<glyph glyph-name="less" d="M588 107v-115l-508 214v94l508 214v-115l-352 -146z" unicode="&lt;"/>
<glyph glyph-name="equal" d="M586 201v-120h-504v120h504zM586 425v-120h-504v120h504z" unicode="="/>
<glyph glyph-name="greater" d="M80 107l352 146l-352 146v115l508 -214v-94l-508 -214v115z" unicode="&gt;"/>
<glyph glyph-name="question" horiz-adv-x="646" unicode="?" d="M229 0v180h172v-180h-172zM202 426h-133q-12 37 -12 75q0 97 73.5 150t197.5 53t198 -56t74 -139q0 -60 -42 -100q-29 -29 -84.5 -56.5t-70.5 -41.5q-26 -27 -28 -68h-115q0 76 51 127q7 6 40 30.5t49.5 47.5t16.5 53q0 35 -32.5 59.5t-77.5 24.5q-59 0 -88 -29.5 t-29 -72.5q0 -30 12 -57z"/>
<glyph glyph-name="at" horiz-adv-x="800" unicode="@" d="M615 130l47 -54q-100 -93 -239 -93q-158 0 -268 102.5t-110 258.5q0 154 108.5 258.5t263.5 104.5q86 0 163 -35t126.5 -102t49.5 -151q0 -59 -19 -107t-46.5 -76.5t-62 -48t-63 -26.5t-51.5 -7q-57 0 -59 47l-2 2q-42 -49 -107 -49q-54 0 -95.5 47t-41.5 112 q0 91 48.5 154t137.5 63q78 0 119 -57l9 44h87l-40 -218q-2 -14 -2 -27q0 -27 11 -27q36 0 63 36t27 101q0 114 -70 175.5t-185 61.5q-120 0 -194.5 -77t-74.5 -198q0 -125 80 -199t206 -74q105 0 184 59zM486 352q0 36 -21 59.5t-56 23.5q-40 0 -67.5 -30.5t-27.5 -69.5 q0 -35 19.5 -57.5t53.5 -22.5q43 0 71 29t28 68z"/>
<glyph glyph-name="A" horiz-adv-x="823" unicode="A" d="M22 0l292 697h182l306 -697h-190l-59 141h-301l-55 -141h-175zM502 261l-107 251l-97 -251h204z"/>
<glyph glyph-name="B" horiz-adv-x="844" unicode="B" d="M96 0v689h394q112 0 180.5 -38.5t68.5 -120.5q0 -54 -40.5 -95.5t-132.5 -58.5q220 -33 220 -177q0 -101 -92.5 -150t-244.5 -49h-353zM285 303v-165h181q123 0 123 81q0 40 -28 62t-79 22h-197zM285 568v-140h163q43 0 69.5 17.5t26.5 51.5q0 71 -98 71h-161z"/>
<glyph glyph-name="C" horiz-adv-x="844" unicode="C" d="M632 276h175q-3 -51 -28.5 -101.5t-70.5 -93.5t-117 -70t-158 -27q-83 0 -149.5 22.5t-109 58t-71 83t-40.5 95t-12 95.5q0 95 33.5 167.5t90.5 115t126 64t146 21.5q300 0 351 -259h-171q-18 51 -65 80.5t-116 29.5q-52 0 -91.5 -19.5t-61 -51.5t-32 -68t-10.5 -76 q0 -97 52 -152.5t138 -55.5q72 0 125.5 38.5t65.5 103.5z"/>
<glyph glyph-name="D" horiz-adv-x="896" unicode="D" d="M96 0v689h359q172 0 278.5 -96.5t106.5 -248.5q0 -65 -24.5 -125.5t-71 -110t-122.5 -79t-170 -29.5h-356zM285 542v-392h159q91 0 137.5 46t46.5 155q0 108 -48 149.5t-140 41.5h-155z"/>
<glyph glyph-name="E" horiz-adv-x="760" unicode="E" d="M94 0v689h601v-150h-412v-114h340v-150h-340v-125h429v-150h-618z"/>
<glyph glyph-name="F" horiz-adv-x="698" unicode="F" d="M91 0v689h579v-153h-389v-118h312v-148h-311v-270h-191z"/>
<glyph glyph-name="G" horiz-adv-x="833" unicode="G" d="M657 0v81q-91 -96 -248 -96q-148 0 -255 96t-107 262q0 38 9 80t35.5 93.5t68 91.5t114 67.5t165.5 27.5q159 0 246.5 -74.5t90.5 -186.5h-163q-6 35 -26 60.5t-47.5 37t-51 16.5t-46.5 5q-94 0 -144.5 -62.5t-50.5 -158.5q0 -100 54.5 -156t138.5 -56q60 0 104 26t61 64 h-113v142h285v-360h-120z"/>
<glyph glyph-name="H" horiz-adv-x="938" unicode="H" d="M97 0v689h190v-254h364v254h190v-689h-190v267h-364v-267h-190z"/>
<glyph glyph-name="I" horiz-adv-x="385" unicode="I" d="M97 0v689h191v-689h-191z"/>
<glyph glyph-name="J" horiz-adv-x="635" unicode="J" d="M57 334h137q-6 -27 -6 -89q0 -57 24.5 -87t65.5 -30q39 0 63 28.5t24 86.5v446h193v-432q0 -74 -22.5 -129t-61 -84.5t-81.5 -43.5t-92 -14q-33 0 -65 6t-67 23.5t-61.5 44t-43.5 72t-17 103.5q0 52 10 99z"/>
<glyph glyph-name="K" horiz-adv-x="885" unicode="K" d="M119 0v689h189v-359l334 359h193l-268 -286l298 -403h-236l-187 268l-135 -146v-122h-188z"/>
<glyph glyph-name="L" horiz-adv-x="698" unicode="L" d="M97 0v689h190v-514h383v-175h-573z"/>
<glyph glyph-name="M" horiz-adv-x="1115" unicode="M" d="M94 0v689h263l194 -412l199 412h272v-689h-183v488l-237 -488h-111l-229 488v-488h-168z"/>
<glyph glyph-name="N" horiz-adv-x="938" unicode="N" d="M100 0v689h261l303 -424v424h174v-689h-217l-347 491v-491h-174z"/>
<glyph glyph-name="O" horiz-adv-x="906" unicode="O" d="M457 558q-86 0 -143 -61t-57 -151t56.5 -149.5t140.5 -59.5q82 0 139 61t57 150t-56.5 149.5t-136.5 60.5zM55 345q0 49 14 98.5t45.5 97.5t76.5 84.5t113 59t149 22.5q88 0 159 -25t114.5 -64t73 -88.5t41 -95.5t11.5 -88q0 -66 -26 -129t-74 -115t-124 -83.5 t-168 -31.5q-89 0 -160.5 24t-116 61.5t-74.5 86.5t-42 95t-12 91z"/>
<glyph glyph-name="P" horiz-adv-x="802" unicode="P" d="M93 0v689h388q145 0 214.5 -58.5t69.5 -148.5q0 -40 -13.5 -75.5t-44 -69t-89.5 -53t-140 -19.5h-193v-265h-192zM282 559v-165h148q133 0 133 86q0 42 -32.5 60.5t-99.5 18.5h-149z"/>
<glyph glyph-name="Q" horiz-adv-x="906" unicode="Q" d="M454 137q82 0 139 61t57 150t-56.5 149.5t-136.5 60.5q-86 0 -143 -61t-57 -151t56.5 -149.5t140.5 -59.5zM807 -54v-112q-81 -17 -216 -19q-110 0 -157 30.5t-47 100.5q0 14 3 46q-73 8 -132.5 35.5t-96 64t-61.5 82t-35 88t-10 83.5q0 49 14 98.5t45.5 97.5t76.5 84.5 t113 59t149 22.5q88 0 159 -25t114.5 -64t73 -88.5t41 -95.5t11.5 -88q0 -78 -33.5 -150t-104 -127.5t-165.5 -73.5q1 -19 4 -29t13.5 -21t34 -15.5t62.5 -4.5q58 0 144 21z"/>
<glyph glyph-name="R" horiz-adv-x="813" unicode="R" d="M107 0v689h399q108 0 178 -45t70 -130q0 -157 -249 -183q115 -29 154 -68q34 -34 44.5 -79t18 -95.5t32.5 -88.5h-202q-23 30 -35 126t-39 123q-21 21 -81 21h-99v-270h-191zM297 561v-158h111q150 0 150 82q0 34 -25.5 55t-80.5 21h-155z"/>
<glyph glyph-name="S" horiz-adv-x="771" unicode="S" d="M708 462h-158q-15 51 -60 78.5t-107 27.5q-37 0 -63.5 -6.5t-38.5 -16.5t-17 -19t-5 -18q0 -14 11 -25q18 -18 96 -35t167.5 -45t134.5 -73q57 -57 57 -130q0 -93 -86 -153.5t-237 -60.5q-104 0 -168.5 22t-108.5 66q-71 71 -76 179h170q7 -63 57 -98.5t119 -35.5 q62 0 95.5 17.5t33.5 42.5q0 17 -14 31q-19 19 -69.5 34.5t-102.5 26t-110.5 34t-91.5 56.5q-54 54 -54 128q0 76 60 138q41 41 97.5 60t148.5 19q126 0 209.5 -61.5t110.5 -182.5z"/>
<glyph glyph-name="T" horiz-adv-x="760" unicode="T" d="M25 533v156h720v-156h-269v-533h-191v533h-260z"/>
<glyph glyph-name="U" horiz-adv-x="854" unicode="U" d="M275 689v-391q0 -93 38.5 -132.5t114.5 -39.5q78 0 120 41.5t42 136.5v385h179v-410q0 -94 -48.5 -162t-125.5 -100t-171 -32q-161 0 -250 70.5t-89 214.5v419h190z"/>
<glyph glyph-name="V" horiz-adv-x="760" unicode="V" d="M282 0l-258 689h201l175 -482l167 482h170l-253 -689h-202z"/>
<glyph glyph-name="W" horiz-adv-x="1135" unicode="W" d="M282 0l-261 689h186l151 -420l144 420h144l160 -419l141 419h167l-253 -689h-133l-161 419l-155 -419h-130z"/>
<glyph glyph-name="X" horiz-adv-x="896" unicode="X" d="M321 348l-272 341h233l167 -208l166 208h218l-265 -333l279 -356h-235l-174 222l-171 -222h-214z"/>
<glyph glyph-name="Y" horiz-adv-x="792" unicode="Y" d="M303 245l-280 445h206l186 -293l180 292h174l-276 -444v-245h-190v245z"/>
<glyph glyph-name="Z" horiz-adv-x="750" unicode="Z" d="M71 530v159h609v-67l-348 -462h363v-160h-642v64l347 466h-329z"/>
<glyph glyph-name="bracketleft" horiz-adv-x="573" unicode="[" d="M92 -167v856h427v-122h-257v-611h257v-123h-427z"/>
<glyph glyph-name="backslash" horiz-adv-x="365" unicode="\" d="M238 -165l-178 854h102l176 -854h-100z"/>
<glyph glyph-name="bracketright" horiz-adv-x="573" unicode="]" d="M54 567v122h427v-856h-427v123h257v611h-257z"/>
<glyph glyph-name="asciicircum" d="M186 247h-119l214 453h106l214 -453h-120l-147 336z" unicode="^"/>
<glyph glyph-name="underscore" horiz-adv-x="500" unicode="_" d="M500 -125h-500v50h500v-50z"/>
<glyph glyph-name="grave" horiz-adv-x="333" unicode="`" d="M151 556l-115 167h153l29 -167h-67z"/>
<glyph glyph-name="a" horiz-adv-x="771" unicode="a" d="M238 338h-147q0 52 42 96q37 36 89.5 55t152.5 19q66 0 114 -12t74 -29.5t41.5 -44t19.5 -49.5t4 -53v-162q0 -32 11.5 -46t45.5 -14q31 0 68 12v-100q-74 -23 -138 -23q-129 0 -159 88q-43 -44 -106.5 -67.5t-121.5 -23.5q-76 0 -121 42.5t-45 101.5q0 53 35 88 q33 33 84 47.5t140.5 25.5t137.5 21v16q0 37 -29 60t-86 23q-86 0 -106 -71zM458 184v65q-16 -3 -45.5 -7.5t-46 -7.5t-40 -8.5t-36.5 -12t-26 -15.5t-19 -21.5t-6 -28.5q0 -26 19 -42t60 -16q42 0 84 25t56 69z"/>
<glyph glyph-name="b" horiz-adv-x="760" unicode="b" d="M87 0v689h167v-263q36 40 86.5 61.5t101.5 21.5q107 0 183.5 -72.5t76.5 -184.5q0 -115 -79.5 -188.5t-185.5 -73.5q-141 0 -212 109q-16 -80 -19 -99h-119zM276 249q0 -68 35 -114t99 -46q56 0 84.5 42t28.5 117q0 155 -115 155q-59 0 -95.5 -42.5t-36.5 -111.5z"/>
<glyph glyph-name="c" horiz-adv-x="688" unicode="c" d="M645 317h-183q-22 73 -111 73q-52 0 -86 -38.5t-34 -112.5q0 -69 34 -105t85 -36q89 0 122 80h177q-6 -21 -16.5 -43t-34 -50.5t-54.5 -49.5t-81 -36t-110 -15q-137 0 -219.5 72t-82.5 191q0 113 84 188t216 75q72 0 129.5 -19.5t90.5 -51t50.5 -62t23.5 -60.5z"/>
<glyph glyph-name="d" horiz-adv-x="760" unicode="d" d="M501 436v253h171v-689h-172v72q-31 -37 -81 -61t-109 -24q-110 0 -181.5 76t-71.5 184q0 50 16.5 93.5t44 73t62 51t71 31.5t70.5 10q101 0 180 -70zM476 253q0 69 -35 111t-89 42q-58 0 -88.5 -43t-30.5 -118q0 -71 30 -111t91 -40q51 0 86.5 40t35.5 119z"/>
<glyph glyph-name="e" horiz-adv-x="708" unicode="e" d="M493 144h164q-11 -22 -30.5 -46t-53 -52t-87.5 -45.5t-117 -17.5q-69 0 -124 17.5t-88 45t-55 63t-30.5 68.5t-8.5 65q0 109 82 187.5t212 78.5q138 0 218.5 -84.5t84.5 -204.5h-416q3 -53 36 -89.5t103 -36.5q75 0 110 51zM246 295h238q-2 43 -33 72.5t-85 29.5 q-50 0 -82 -27.5t-38 -74.5z"/>
<glyph glyph-name="f" horiz-adv-x="510" unicode="f" d="M324 365v-365h-171v365h-128v125h128v27q0 91 61 141t165 50q189 0 206 -142h-158q-2 23 -14 41q-14 21 -38 21q-51 0 -51 -83v-55h152v-125h-152z"/>
<glyph glyph-name="g" horiz-adv-x="771" unicode="g" d="M761 386h-22q-81 0 -126 -21q5 -20 5 -37q0 -61 -40 -104t-94 -60.5t-113 -17.5q-41 0 -81 6.5t-42 6.5q-18 0 -40 -12.5t-22 -31.5q0 -16 17 -25.5t44 -9.5q41 0 123 3.5t114 3.5q103 0 148 -38t45 -92q0 -34 -12 -59t-37 -40t-50 -24.5t-65.5 -13.5t-69 -5t-72.5 -1 q-45 0 -70 0.5t-68 2.5t-68 7.5t-52.5 14t-40 23t-12.5 34.5t26.5 38t74.5 27q-49 14 -72 45.5t-23 62.5q0 84 106 119q-44 22 -67 58.5t-23 79.5q0 68 70.5 122.5t195.5 54.5q84 0 139 -21t81 -48q40 35 84 50t109 17v-115zM434 -54q-137 0 -189 -8.5t-52 -33.5 q0 -41 170 -41q100 0 145.5 10t45.5 36q0 13 -9.5 21t-30 11.5t-36 4t-44.5 0.5zM351 437q-38 0 -67 -26.5t-29 -86.5q0 -56 30.5 -80t62.5 -24q39 0 68 29t29 77q0 57 -30.5 84t-63.5 27z"/>
<glyph glyph-name="h" horiz-adv-x="740" unicode="h" d="M89 0v689h168v-295q53 111 191 111q101 0 155 -56.5t54 -147.5v-301h-171v246q0 60 -18 93t-69 33q-65 0 -104 -51t-39 -136v-185h-167z"/>
<glyph glyph-name="i" horiz-adv-x="344" unicode="i" d="M86 0v490h172v-490h-172zM86 562v127h171v-127h-171z"/>
<glyph glyph-name="j" horiz-adv-x="365" unicode="j" d="M110 13v477h171v-531q0 -72 -56 -107t-153 -35q-31 0 -61 2v128q56 2 77.5 16t21.5 50zM111 562v127h171v-127h-171z"/>
<glyph glyph-name="k" horiz-adv-x="729" unicode="k" d="M83 0v689h168v-404l194 205h238l-198 -180l229 -310h-212l-135 202l-116 -106v-96h-168z"/>
<glyph glyph-name="l" horiz-adv-x="344" unicode="l" d="M85 0v689h175v-689h-175z"/>
<glyph glyph-name="m" horiz-adv-x="1135" unicode="m" d="M87 0v490h167v-100q54 111 197 111q64 0 113.5 -31t72.5 -84q33 54 88.5 84.5t119.5 30.5q88 0 148 -58t60 -164v-279h-170v257q0 54 -24.5 83t-60.5 29q-62 0 -102.5 -44.5t-40.5 -118.5v-206h-170v250q0 117 -89 117q-55 0 -97 -47.5t-42 -122.5v-197h-170z"/>
<glyph glyph-name="n" horiz-adv-x="740" unicode="n" d="M87 0v490h169v-104q53 115 201 115q100 0 151.5 -58t51.5 -135v-308h-171v257q0 112 -88 112q-58 0 -100.5 -46.5t-42.5 -127.5v-195h-171z"/>
<glyph glyph-name="o" horiz-adv-x="708" unicode="o" d="M56 247q0 111 83 186t214 75q137 0 218 -73t81 -187q0 -119 -87 -192t-212 -73q-136 0 -216.5 78.5t-80.5 185.5zM354 104q55 0 86 41t31 103q0 63 -31 101t-86 38q-56 0 -86.5 -37.5t-30.5 -102.5q0 -64 29 -103.5t88 -39.5z"/>
<glyph glyph-name="p" horiz-adv-x="760" unicode="p" d="M258 62v-249h-170v677h170v-76q34 43 83.5 67t99.5 24q106 0 184.5 -72t78.5 -190q0 -117 -76.5 -187t-181.5 -70q-136 0 -188 76zM408 398q-54 0 -90.5 -42t-36.5 -110q0 -77 36 -120t93 -43q59 0 86.5 43t27.5 113q0 159 -116 159z"/>
<glyph glyph-name="q" horiz-adv-x="760" unicode="q" d="M676 490v-677h-175v251q-87 -78 -186 -78q-113 0 -185 78t-72 184q0 107 77 181.5t195 74.5q129 0 206 -108l16 94h124zM483 256q0 61 -36.5 105.5t-91.5 44.5q-54 0 -85 -40t-31 -117q0 -74 31 -115.5t82 -41.5q50 0 90.5 39t40.5 125z"/>
<glyph glyph-name="r" horiz-adv-x="500" unicode="r" d="M252 490v-136q63 145 191 145h33v-160h-21q-66 0 -101 -10t-60 -34q-42 -42 -42 -98v-197h-171v490h171z"/>
<glyph glyph-name="s" horiz-adv-x="573" unicode="s" d="M39 139h152q15 -32 44 -46q26 -11 62 -11q94 0 94 43q0 12 -9 21q-13 13 -72.5 23.5t-128 30t-100.5 51.5q-38 38 -38 91q0 70 62 119t173 49q228 0 246 -161h-139q-5 25 -29.5 42.5t-70.5 17.5q-77 0 -77 -37q0 -10 7 -19q13 -15 67 -24.5t116.5 -26.5t95.5 -50 q44 -44 44 -108q0 -14 -3 -29t-17 -39.5t-38.5 -43t-73 -32.5t-114.5 -14q-65 0 -114.5 12.5t-74.5 29.5t-40.5 40.5t-19.5 39t-4 31.5z"/>
<glyph glyph-name="t" horiz-adv-x="510" unicode="t" d="M463 109v-105q-63 -18 -140 -18q-84 0 -129 31.5t-45 87.5v260h-113v125h117l31 178h133v-178h146v-125h-145v-194q0 -41 14 -56.5t60 -15.5q40 0 71 10z"/>
<glyph glyph-name="u" horiz-adv-x="740" unicode="u" d="M652 490v-490h-169v99q-30 -54 -81.5 -83t-117.5 -29q-91 0 -146 59t-55 167v277h170v-259q0 -56 25.5 -83t65.5 -27q53 0 95.5 47t42.5 118v204h170z"/>
<glyph glyph-name="v" horiz-adv-x="635" unicode="v" d="M237 0l-215 490h178l120 -310l114 310h180l-220 -490h-157z"/>
<glyph glyph-name="w" horiz-adv-x="969" unicode="w" d="M207 0l-182 490h178l86 -302l108 302h166l108 -296l87 296h186l-189 -490h-169l-106 296l-107 -296h-166z"/>
<glyph glyph-name="x" horiz-adv-x="708" unicode="x" d="M246 263l-179 227h204l85 -156l84 156h204l-181 -229l217 -261h-218l-107 182l-105 -182h-221z"/>
<glyph glyph-name="y" horiz-adv-x="635" unicode="y" d="M251 1l-227 489h180l124 -306l110 306h172l-225 -517q-39 -89 -94 -121t-155 -32h-44v127h41h6q91 0 112 54z"/>
<glyph glyph-name="z" horiz-adv-x="646" unicode="z" d="M54 360v130h547v-111l-290 -247h305v-132h-578v106l294 254h-278z"/>
<glyph glyph-name="braceleft" horiz-adv-x="573" unicode="{" d="M63 204v114q55 0 96 20t41 65v141q0 69 56 107t160 38h114v-120h-71q-49 0 -69 -16.5t-20 -50.5v-128q-1 -91 -153 -113q152 -22 153 -113v-128q0 -34 20 -50.5t69 -16.5h71v-120h-114q-104 0 -160 38t-56 107v141q0 45 -41 65t-96 20z"/>
<glyph glyph-name="bar" horiz-adv-x="546" unicode="|" d="M223 -250v1000h100v-1000h-100z"/>
<glyph glyph-name="braceright" horiz-adv-x="573" unicode="}" d="M510 318v-114q-55 0 -96 -20t-41 -65v-141q0 -69 -56 -107t-160 -38h-114v120h71q49 0 69 16.5t20 50.5v128q1 91 153 113q-152 22 -153 113v128q0 34 -20 50.5t-69 16.5h-71v120h114q104 0 160 -38t56 -107v-141q0 -45 41 -65t96 -20z"/>
<glyph glyph-name="asciitilde" d="M532 335l58 -80q-66 -91 -149 -91q-35 0 -103 34q-70 34 -112 34q-49 0 -91 -61l-58 80q33 44 67.5 67.5t81.5 23.5t115.5 -34t99.5 -34q52 0 91 61z" unicode="~"/>
<glyph glyph-name="uni00A0" horiz-adv-x="300" unicode=" "/>
<glyph glyph-name="exclamdown" horiz-adv-x="323" unicode="¡" d="M249 525v-179h-169v179h169zM122 271h78q5 -37 28 -134t23 -161q0 -94 -27 -138h-132q-20 49 -20 118q0 68 23.5 174.5t26.5 140.5z"/>
<glyph glyph-name="cent" horiz-adv-x="688" unicode="¢" d="M422 504l98 204h97l-110 -231q61 -27 94.5 -74.5t42.5 -88.5h-187q-10 24 -14 27l-115 -243q7 -1 22 -1q41 0 71.5 20t42.5 60h183q-22 -82 -101.5 -138.5t-196.5 -56.5q-13 0 -73 4l-81 -174h-96l94 200q-67 28 -106.5 92t-39.5 135q0 114 81 192t226 78q40 0 68 -5z M252 142l115 244q-6 1 -19 1q-56 0 -88 -41t-32 -103q0 -70 24 -101z"/>
<glyph glyph-name="sterling" horiz-adv-x="948" unicode="£" d="M197 131q-38 0 -64.5 -14t-26.5 -39q0 -15 18.5 -28t49.5 -13q47 0 81.5 23t46.5 52q-5 1 -17 5t-18.5 5.5t-18 4t-24 3.5t-27.5 1zM428 383h210v-100h-194v-36q0 -54 -13 -83q103 -19 182 -19q77 0 113 23t44 82h128q0 -128 -55 -194.5t-180 -66.5q-121 0 -268 84 q-87 -85 -196 -85q-80 0 -116.5 27.5t-36.5 64.5q0 47 45 75t116 28q45 0 93 -4q-1 45 -28 104h-192v100h169q-6 32 -6 61q0 31 6.5 61t26.5 65t51.5 60.5t86 42.5t124.5 17q51 0 97.5 -13.5t86 -40.5t62.5 -74t23 -109v-6h-125q-2 38 -35.5 72t-96.5 34q-58 0 -92.5 -29.5 t-34.5 -86.5q0 -37 5 -54z"/>
<glyph glyph-name="currency" d="M52 98l98 98q-31 52 -31 115q0 64 31 115l-98 98l69 69l98 -98q52 31 115 31q65 0 115 -31l98 98l69 -69l-98 -98q31 -50 31 -115q0 -66 -31 -114l98 -99l-69 -69l-98 99q-52 -32 -115 -32t-115 31l-98 -98zM334 416q-43 0 -69 -30t-26 -75t26 -75t69 -30t69 30t26 75 t-26 75t-69 30z" unicode="¤"/>
<glyph glyph-name="yen" horiz-adv-x="792" unicode="¥" d="M415 445l180 244h174l-193 -262h186v-100h-273v-93h273v-100h-273v-134h-182v134h-277v100h277v93h-277v100h193l-200 262h206z"/>
<glyph glyph-name="brokenbar" horiz-adv-x="546" unicode="¦" d="M223 325v350h100v-350h-100zM223 -175v350h100v-350h-100z"/>
<glyph glyph-name="section" horiz-adv-x="656" unicode="§" d="M97 -2h148q1 -69 97 -69q99 0 99 59q0 16 -11 25q-19 19 -83.5 34.5t-134 36.5t-101.5 53q-43 43 -43 108q0 82 77 156q-57 54 -57 122q0 16 4 34t19.5 43.5t40 45.5t70.5 34t106 14q68 0 117 -16t73 -42.5t34 -52t10 -51.5v-9h-129q-1 76 -114 76q-93 0 -93 -59 q0 -17 12 -27q17 -18 79.5 -32.5t129.5 -33.5t95 -47q46 -47 46 -112q0 -81 -69 -153q27 -18 42 -50.5t15 -68.5q0 -23 -6.5 -46t-24 -48.5t-45 -44.5t-74.5 -31.5t-107 -12.5q-65 0 -112 16t-69 41.5t-31.5 50t-9.5 48.5v9zM207 362q-31 -34 -31 -65q0 -21 16 -38 q18 -18 54.5 -31t101.5 -28.5t104 -28.5q31 31 31 62q0 22 -17 39q-26 26 -128.5 51.5t-130.5 38.5z"/>
<glyph glyph-name="dieresis" horiz-adv-x="333" unicode="¨" d="M218 579v116h111v-116h-111zM4 579v116h109v-116h-109z"/>
<glyph glyph-name="copyright" horiz-adv-x="800" unicode="©" d="M24 345q0 165 111 263.5t265 98.5q99 0 183.5 -41.5t138.5 -125.5t54 -195t-54 -195t-138.5 -125.5t-183.5 -41.5q-154 0 -265 98.5t-111 263.5zM114 345q0 -119 84 -203t202 -84t202 84t84 203t-84 203t-202 84t-202 -84t-84 -203zM496 292h92q-10 -72 -58.5 -112 t-114.5 -40q-89 0 -144.5 59.5t-55.5 148.5q0 92 53.5 150.5t144.5 58.5q67 0 113.5 -38.5t57.5 -110.5h-88q-11 59 -83 59q-43 0 -66.5 -31t-23.5 -86q0 -52 25.5 -86t66.5 -34q77 0 81 62z"/>
<glyph glyph-name="ordfeminine" horiz-adv-x="475" unicode="ª" d="M145 592h-92q0 35 26 63q22 24 54.5 36.5t93.5 12.5q49 0 82 -11t48 -31t20 -38.5t5 -43.5v-106q0 -21 7 -30t27 -9q22 0 42 8v-67q-47 -16 -85 -16q-79 0 -96 58q-27 -28 -66 -44t-74 -16q-47 0 -74.5 28t-27.5 67q0 36 21 60q20 22 51.5 32t85.5 16.5t83 13.5v9 q0 54 -67 54q-52 0 -64 -46zM278 488v42q-8 -1 -22 -3.5t-22 -3.5t-20.5 -3.5t-19.5 -4.5t-16 -5t-14 -7t-10 -9.5t-7 -12t-2 -14.5q0 -37 47 -37q25 0 51 15.5t35 42.5z"/>
<glyph glyph-name="guillemotleft" horiz-adv-x="656" unicode="«" d="M325 44h-134q-69 136 -132 222q84 123 130 223h133q-20 -46 -57.5 -114.5t-66.5 -109.5q72 -99 127 -221zM597 44h-134q-69 136 -132 222q86 123 130 223h134q-57 -126 -125 -224q76 -106 127 -221z"/>
<glyph glyph-name="logicalnot" d="M466 108v197h-384v120h504v-317h-120z" unicode="¬"/>
<glyph glyph-name="uni00AD" horiz-adv-x="458" unicode="­" d="M70 174v144h318v-144h-318z"/>
<glyph glyph-name="registered" horiz-adv-x="800" unicode="®" d="M24 345q0 165 111 263.5t265 98.5q99 0 183.5 -41.5t138.5 -125.5t54 -195t-54 -195t-138.5 -125.5t-183.5 -41.5q-154 0 -265 98.5t-111 263.5zM114 345q0 -119 84 -203t202 -84t202 84t84 203t-84 203t-202 84t-202 -84t-84 -203zM346 312v-152h-92v377h165 q57 0 95.5 -22.5t38.5 -75.5q0 -36 -22 -60t-60 -32v-2q22 -2 36 -9t21 -19.5t9.5 -25t5.5 -33.5q1 -6 1 -9q9 -74 19 -89h-95q-6 33 -14 101q-5 50 -31 51h-77zM346 476v-98h61h3q49 0 49 49q0 48 -52 49h-61z"/>
<glyph glyph-name="macron" horiz-adv-x="333" unicode="¯" d="M331 590h-329v94h329v-94z"/>
<glyph glyph-name="degree" horiz-adv-x="400" unicode="°" d="M291 543q0 41 -25.5 69t-65.5 28t-65.5 -28t-25.5 -69t25.5 -69.5t65.5 -28.5t65.5 28.5t25.5 69.5zM43 543q0 65 46 111t111 46t111 -46t46 -111t-46 -111.5t-111 -46.5t-111 46.5t-46 111.5z"/>
<glyph glyph-name="plusminus" d="M82 0v120h504v-120h-504zM274 462v156h120v-156h192v-120h-192v-150h-120v150h-192v120h192z" unicode="±"/>
<glyph glyph-name="two.superior" horiz-adv-x="438" unicode="²" d="M147 536h-78q-3 12 -3 31q0 24 6 45t20.5 43t45 35t74.5 13q79 0 116.5 -32.5t37.5 -80.5q0 -47 -35.5 -79.5t-127.5 -86.5h165v-75h-299v42q78 46 124.5 98t46.5 92q0 25 -12.5 38.5t-32.5 13.5q-54 0 -54 -57q0 -18 6 -40z"/>
<glyph glyph-name="three.superior" horiz-adv-x="438" unicode="³" d="M146 588h-82q3 115 150 115q46 0 78 -10t46 -27t19 -31t5 -30q0 -54 -68 -76q43 -8 64.5 -28.5t21.5 -58.5q0 -45 -38.5 -73t-122.5 -28q-81 0 -120 29.5t-45 90.5h83q9 -56 64 -56q21 0 35 13t14 34q0 45 -65 45h-30v56h27q25 0 40.5 12.5t15.5 31.5q0 40 -46 40 q-21 0 -33.5 -13.5t-12.5 -35.5z"/>
<glyph glyph-name="acute" horiz-adv-x="333" unicode="´" d="M114 556l34 168h153l-121 -168h-66z"/>
<glyph glyph-name="mu" d="M594 490v-490h-150v72q-41 -84 -116 -84q-69 0 -109 54q5 -75 5 -86v-148h-151v682h151v-269q0 -49 29.5 -83t76.5 -34q50 0 82 39t32 90v257h150z" unicode="µ"/>
<glyph glyph-name="paragraph" horiz-adv-x="700" unicode="¶" d="M380 579v-759h-120v445q-107 0 -165 59t-58 159q0 97 69 151.5t177 54.5h374v-110h-60v-759h-120v759h-97z"/>
<glyph glyph-name="periodcentered" horiz-adv-x="313" unicode="·" d="M71 261v164h172v-164h-172z"/>
<glyph glyph-name="cedilla" horiz-adv-x="333" unicode="¸" d="M103 -54h127v-52q0 -57 -37 -92h-71q32 37 43 60h-62v84z"/>
<glyph glyph-name="one.superior" horiz-adv-x="438" unicode="¹" d="M104 593v51q71 1 110 53h76v-348h-127v244h-59z"/>
<glyph glyph-name="ordmasculine" horiz-adv-x="435" unicode="º" d="M39 532q0 73 49.5 122.5t128.5 49.5q82 0 131 -48.5t49 -122.5q0 -79 -52.5 -127t-127.5 -48q-81 0 -129.5 52t-48.5 122zM218 622q-68 0 -68 -90q0 -92 68 -92t68 93q0 41 -17.5 65t-50.5 24z"/>
<glyph glyph-name="guillemotright" horiz-adv-x="656" unicode="»" d="M194 44h-134q55 122 127 221q-29 41 -66.5 109.5t-57.5 114.5h133q46 -100 130 -223q-63 -86 -132 -222zM464 45h-133q51 115 127 221q-28 39 -65.5 106.5t-59.5 116.5h134q46 -102 129 -222q-67 -93 -132 -222z"/>
<glyph glyph-name="onequarter" horiz-adv-x="938" unicode="¼" d="M185 -36l423 740h76l-422 -740h-77zM69 593v51q71 1 110 53h76v-348h-127v244h-59zM508 117l153 200h142v-213h69v-65h-70v-71h-120v72h-174v77zM680 233l-98 -128h98v128z"/>
<glyph glyph-name="onehalf" horiz-adv-x="938" unicode="½" d="M164 -36l422 740h77l-422 -740h-77zM81 592v51q71 1 110 53h76v-347h-127v243h-59zM614 155h-78q-3 14 -3 31q0 24 6 45.5t20.5 43.5t45 35t74.5 13q79 0 116.5 -32.5t37.5 -80.5t-35 -80t-128 -87h165v-75h-299v42q78 46 124.5 98t46.5 92q0 26 -13 39.5t-32 13.5 q-26 0 -40 -15.5t-14 -42.5q0 -17 6 -40z"/>
<glyph glyph-name="threequarters" horiz-adv-x="938" unicode="¾" d="M219 -36l422 741h77l-422 -741h-77zM135 587h-82q3 116 150 116q46 0 78 -10t46 -27t19 -31.5t5 -30.5q0 -54 -67 -76q43 -8 64.5 -28t21.5 -58q0 -45 -38.5 -73t-123.5 -28q-81 0 -120 29t-45 90h83q9 -55 64 -55q22 0 36 12.5t14 33.5q0 45 -65 45h-31v56h27 q25 0 40.5 12.5t15.5 32.5q0 40 -46 40q-21 0 -33.5 -14t-12.5 -36zM535 117l152 200h143v-213h69v-65h-70v-71h-121v72h-173v77zM707 233l-98 -128h98v128z"/>
<glyph glyph-name="questiondown" horiz-adv-x="646" unicode="¿" d="M418 525v-179h-172v179h172zM445 97h134q12 -36 12 -74q0 -97 -74 -150t-197 -53q-124 0 -198 56t-74 139q0 60 42 100q29 29 84.5 56.5t70.5 41.5q26 26 28 68h114q0 -76 -51 -127q-6 -6 -39.5 -30.5t-49.5 -47.5t-16 -53q0 -36 32 -60t77 -24q59 0 88.5 29.5t29.5 72.5 q0 31 -13 56z"/>
<glyph glyph-name="Agrave" horiz-adv-x="823" unicode="À" d="M381 755l-115 167h153l29 -167h-67zM22 0l292 697h182l306 -697h-190l-59 141h-301l-55 -141h-175zM502 261l-107 251l-97 -251h204z"/>
<glyph glyph-name="Aacute" horiz-adv-x="823" unicode="Á" d="M359 755l34 168h153l-121 -168h-66zM22 0l292 697h182l306 -697h-190l-59 141h-301l-55 -141h-175zM502 261l-107 251l-97 -251h204z"/>
<glyph glyph-name="Acircumflex" horiz-adv-x="823" unicode="Â" d="M240 755l97 188h126l91 -188h-79l-77 100l-81 -100h-77zM22 0l292 697h182l306 -697h-190l-59 141h-301l-55 -141h-175zM502 261l-107 251l-97 -251h204z"/>
<glyph glyph-name="Atilde" horiz-adv-x="823" unicode="Ã" d="M282 764h-59q17 146 111 146q35 0 80 -20.5t57 -20.5q16 0 26 12.5t12 30.5h61q-6 -78 -35.5 -113t-73.5 -35q-32 0 -79.5 21t-56.5 21q-30 0 -43 -42zM22 0l292 697h182l306 -697h-190l-59 141h-301l-55 -141h-175zM502 261l-107 251l-97 -251h204z"/>
<glyph glyph-name="Adieresis" horiz-adv-x="823" unicode="Ä" d="M448 778v116h111v-116h-111zM234 778v116h109v-116h-109zM22 0l292 697h182l306 -697h-190l-59 141h-301l-55 -141h-175zM502 261l-107 251l-97 -251h204z"/>
<glyph glyph-name="Aring" horiz-adv-x="823" unicode="Å" d="M410 821q-25 0 -43 -18t-18 -44q0 -25 18 -43t43 -18t43 18t18 43q0 26 -18 44t-43 18zM27 0l293 700q-17 38 -17 57q0 45 31.5 78.5t79.5 33.5q42 0 72.5 -31t30.5 -73q0 -36 -17 -66l307 -699h-190l-59 141h-301l-55 -141h-175zM507 262l-107 251l-97 -251h204z"/>
<glyph glyph-name="AE" horiz-adv-x="1167" unicode="Æ" d="M18 0l383 689h703v-148h-381v-118h304v-149h-305v-127h397v-147h-586v139h-251l-78 -139h-186zM534 587l-2 1l-183 -328h185v327z"/>
<glyph glyph-name="Ccedilla" horiz-adv-x="844" unicode="Ç" d="M632 276h175q-3 -51 -28.5 -101.5t-70.5 -93.5t-117 -70t-158 -27q-83 0 -149.5 22.5t-109 58t-71 83t-40.5 95t-12 95.5q0 95 33.5 167.5t90.5 115t126 64t146 21.5q300 0 351 -259h-171q-18 51 -65 80.5t-116 29.5q-52 0 -91.5 -19.5t-61 -51.5t-32 -68t-10.5 -76 q0 -97 52 -152.5t138 -55.5q72 0 125.5 38.5t65.5 103.5zM359 -54h127v-52q0 -57 -37 -92h-71q32 37 43 60h-62v84z"/>
<glyph glyph-name="Egrave" horiz-adv-x="760" unicode="È" d="M365 755l-115 167h153l29 -167h-67zM94 0v689h601v-150h-412v-114h340v-150h-340v-125h429v-150h-618z"/>
<glyph glyph-name="Eacute" horiz-adv-x="760" unicode="É" d="M343 755l34 168h153l-121 -168h-66zM94 0v689h601v-150h-412v-114h340v-150h-340v-125h429v-150h-618z"/>
<glyph glyph-name="Ecircumflex" horiz-adv-x="760" unicode="Ê" d="M234 755l97 188h126l91 -188h-79l-77 100l-81 -100h-77zM94 0v689h601v-150h-412v-114h340v-150h-340v-125h429v-150h-618z"/>
<glyph glyph-name="Edieresis" horiz-adv-x="760" unicode="Ë" d="M442 778v116h111v-116h-111zM228 778v116h109v-116h-109zM94 0v689h601v-150h-412v-114h340v-150h-340v-125h429v-150h-618z"/>
<glyph glyph-name="Igrave" horiz-adv-x="385" unicode="Ì" d="M177 755l-115 167h153l29 -167h-67zM97 0v689h191v-689h-191z"/>
<glyph glyph-name="Iacute" horiz-adv-x="385" unicode="Í" d="M140 755l34 168h153l-121 -168h-66zM97 0v689h191v-689h-191z"/>
<glyph glyph-name="Icircumflex" horiz-adv-x="385" unicode="Î" d="M36 755l97 188h126l91 -188h-79l-77 100l-81 -100h-77zM97 0v689h191v-689h-191z"/>
<glyph glyph-name="Idieresis" horiz-adv-x="385" unicode="Ï" d="M244 778v116h111v-116h-111zM30 778v116h109v-116h-109zM97 0v689h191v-689h-191z"/>
<glyph glyph-name="Eth" horiz-adv-x="896" unicode="Ð" d="M287 542v-116h161v-150h-161v-126h159q91 0 137.5 46t46.5 155q0 108 -48 149.5t-140 41.5h-155zM113 0v276h-81v150h81v263h359q172 0 278.5 -96.5t106.5 -248.5q0 -65 -24.5 -125.5t-71 -110t-122.5 -79t-170 -29.5h-356z"/>
<glyph glyph-name="Ntilde" horiz-adv-x="938" unicode="Ñ" d="M355 764h-59q17 146 111 146q35 0 80 -20.5t57 -20.5q16 0 26 12.5t12 30.5h61q-6 -78 -35.5 -113t-73.5 -35q-32 0 -79.5 21t-56.5 21q-30 0 -43 -42zM100 0v689h261l303 -424v424h174v-689h-217l-347 491v-491h-174z"/>
<glyph glyph-name="Ograve" horiz-adv-x="906" unicode="Ò" d="M438 755l-115 167h153l29 -167h-67zM457 558q-86 0 -143 -61t-57 -151t56.5 -149.5t140.5 -59.5q82 0 139 61t57 150t-56.5 149.5t-136.5 60.5zM55 345q0 49 14 98.5t45.5 97.5t76.5 84.5t113 59t149 22.5q88 0 159 -25t114.5 -64t73 -88.5t41 -95.5t11.5 -88 q0 -66 -26 -129t-74 -115t-124 -83.5t-168 -31.5q-89 0 -160.5 24t-116 61.5t-74.5 86.5t-42 95t-12 91z"/>
<glyph glyph-name="Oacute" horiz-adv-x="906" unicode="Ó" d="M401 755l34 168h153l-121 -168h-66zM457 558q-86 0 -143 -61t-57 -151t56.5 -149.5t140.5 -59.5q82 0 139 61t57 150t-56.5 149.5t-136.5 60.5zM55 345q0 49 14 98.5t45.5 97.5t76.5 84.5t113 59t149 22.5q88 0 159 -25t114.5 -64t73 -88.5t41 -95.5t11.5 -88 q0 -66 -26 -129t-74 -115t-124 -83.5t-168 -31.5q-89 0 -160.5 24t-116 61.5t-74.5 86.5t-42 95t-12 91z"/>
<glyph glyph-name="Ocircumflex" horiz-adv-x="906" unicode="Ô" d="M297 755l97 188h126l91 -188h-79l-77 100l-81 -100h-77zM457 558q-86 0 -143 -61t-57 -151t56.5 -149.5t140.5 -59.5q82 0 139 61t57 150t-56.5 149.5t-136.5 60.5zM55 345q0 49 14 98.5t45.5 97.5t76.5 84.5t113 59t149 22.5q88 0 159 -25t114.5 -64t73 -88.5t41 -95.5 t11.5 -88q0 -66 -26 -129t-74 -115t-124 -83.5t-168 -31.5q-89 0 -160.5 24t-116 61.5t-74.5 86.5t-42 95t-12 91z"/>
<glyph glyph-name="Otilde" horiz-adv-x="906" unicode="Õ" d="M339 764h-59q17 146 111 146q35 0 80 -20.5t57 -20.5q16 0 26 12.5t12 30.5h61q-6 -78 -35.5 -113t-73.5 -35q-32 0 -79.5 21t-56.5 21q-30 0 -43 -42zM457 558q-86 0 -143 -61t-57 -151t56.5 -149.5t140.5 -59.5q82 0 139 61t57 150t-56.5 149.5t-136.5 60.5zM55 345 q0 49 14 98.5t45.5 97.5t76.5 84.5t113 59t149 22.5q88 0 159 -25t114.5 -64t73 -88.5t41 -95.5t11.5 -88q0 -66 -26 -129t-74 -115t-124 -83.5t-168 -31.5q-89 0 -160.5 24t-116 61.5t-74.5 86.5t-42 95t-12 91z"/>
<glyph glyph-name="Odieresis" horiz-adv-x="906" unicode="Ö" d="M505 778v116h111v-116h-111zM291 778v116h109v-116h-109zM457 558q-86 0 -143 -61t-57 -151t56.5 -149.5t140.5 -59.5q82 0 139 61t57 150t-56.5 149.5t-136.5 60.5zM55 345q0 49 14 98.5t45.5 97.5t76.5 84.5t113 59t149 22.5q88 0 159 -25t114.5 -64t73 -88.5t41 -95.5 t11.5 -88q0 -66 -26 -129t-74 -115t-124 -83.5t-168 -31.5q-89 0 -160.5 24t-116 61.5t-74.5 86.5t-42 95t-12 91z"/>
<glyph glyph-name="multiply" d="M252 253l-159 159l82 82l159 -159l159 159l82 -82l-160 -159l160 -159l-82 -82l-159 160l-159 -160l-82 82z" unicode="×"/>
<glyph glyph-name="Oslash" horiz-adv-x="906" unicode="Ø" d="M666 658l43 48h130l-94 -106q55 -55 81 -123.5t26 -130.5q0 -66 -26 -129t-74 -115t-124 -83.5t-168 -31.5q-128 0 -219 49l-45 -50h-134l98 109q-53 51 -79 118.5t-26 131.5q0 49 14 98.5t45.5 97.5t76.5 84.5t113 59t149 22.5q123 0 213 -49zM619 460l-264 -296 q44 -27 99 -27q82 0 139 61t57 150q0 62 -31 112zM286 235l265 296q-42 27 -94 27q-86 0 -143 -61t-57 -151q0 -62 29 -111z"/>
<glyph glyph-name="Ugrave" horiz-adv-x="854" unicode="Ù" d="M412 755l-115 167h153l29 -167h-67zM275 689v-391q0 -93 38.5 -132.5t114.5 -39.5q78 0 120 41.5t42 136.5v385h179v-410q0 -94 -48.5 -162t-125.5 -100t-171 -32q-161 0 -250 70.5t-89 214.5v419h190z"/>
<glyph glyph-name="Uacute" horiz-adv-x="854" unicode="Ú" d="M375 755l34 168h153l-121 -168h-66zM275 689v-391q0 -93 38.5 -132.5t114.5 -39.5q78 0 120 41.5t42 136.5v385h179v-410q0 -94 -48.5 -162t-125.5 -100t-171 -32q-161 0 -250 70.5t-89 214.5v419h190z"/>
<glyph glyph-name="Ucircumflex" horiz-adv-x="854" unicode="Û" d="M271 755l97 188h126l91 -188h-79l-77 100l-81 -100h-77zM275 689v-391q0 -93 38.5 -132.5t114.5 -39.5q78 0 120 41.5t42 136.5v385h179v-410q0 -94 -48.5 -162t-125.5 -100t-171 -32q-161 0 -250 70.5t-89 214.5v419h190z"/>
<glyph glyph-name="Udieresis" horiz-adv-x="854" unicode="Ü" d="M479 778v116h111v-116h-111zM265 778v116h109v-116h-109zM275 689v-391q0 -93 38.5 -132.5t114.5 -39.5q78 0 120 41.5t42 136.5v385h179v-410q0 -94 -48.5 -162t-125.5 -100t-171 -32q-161 0 -250 70.5t-89 214.5v419h190z"/>
<glyph glyph-name="Yacute" horiz-adv-x="792" unicode="Ý" d="M354 755l34 168h153l-121 -168h-66zM303 245l-280 445h206l186 -293l180 292h174l-276 -444v-245h-190v245z"/>
<glyph glyph-name="Thorn" horiz-adv-x="802" unicode="Þ" d="M93 0v689h192v-127h196q145 0 214.5 -58.5t69.5 -148.5q0 -40 -14 -76t-44.5 -69t-88 -52.5t-136.5 -19.5h-197v-138h-192zM282 432v-165h144q137 0 137 86q0 42 -33.5 60.5t-102.5 18.5h-145z"/>
<glyph glyph-name="germandbls" horiz-adv-x="771" unicode="ß" d="M412 325v81q16 0 26 0.5t28 6t29 15t20 29.5t9 48q0 52 -29.5 81.5t-90.5 29.5q-132 0 -132 -167v-449h-168v402q0 83 12.5 136.5t46.5 94t95.5 58.5t156.5 18q75 0 131.5 -18t86.5 -47.5t44.5 -61t14.5 -65.5q0 -114 -119 -151q73 -22 106.5 -64t33.5 -117 q0 -84 -60.5 -141t-153.5 -57q-51 0 -115 17v92q36 -7 60 -7q40 0 66 29.5t26 92.5q0 61 -26.5 87.5t-80.5 26.5h-17z"/>
<glyph glyph-name="agrave" horiz-adv-x="771" unicode="à" d="M355 556l-115 167h153l29 -167h-67zM238 338h-147q0 52 42 96q37 36 89.5 55t152.5 19q66 0 114 -12t74 -29.5t41.5 -44t19.5 -49.5t4 -53v-162q0 -32 11.5 -46t45.5 -14q31 0 68 12v-100q-74 -23 -138 -23q-129 0 -159 88q-43 -44 -106.5 -67.5t-121.5 -23.5 q-76 0 -121 42.5t-45 101.5q0 53 35 88q33 33 84 47.5t140.5 25.5t137.5 21v16q0 37 -29 60t-86 23q-86 0 -106 -71zM458 184v65q-16 -3 -45.5 -7.5t-46 -7.5t-40 -8.5t-36.5 -12t-26 -15.5t-19 -21.5t-6 -28.5q0 -26 19 -42t60 -16q42 0 84 25t56 69z"/>
<glyph glyph-name="aacute" horiz-adv-x="771" unicode="á" d="M333 556l34 168h153l-121 -168h-66zM238 338h-147q0 52 42 96q37 36 89.5 55t152.5 19q66 0 114 -12t74 -29.5t41.5 -44t19.5 -49.5t4 -53v-162q0 -32 11.5 -46t45.5 -14q31 0 68 12v-100q-74 -23 -138 -23q-129 0 -159 88q-43 -44 -106.5 -67.5t-121.5 -23.5 q-76 0 -121 42.5t-45 101.5q0 53 35 88q33 33 84 47.5t140.5 25.5t137.5 21v16q0 37 -29 60t-86 23q-86 0 -106 -71zM458 184v65q-16 -3 -45.5 -7.5t-46 -7.5t-40 -8.5t-36.5 -12t-26 -15.5t-19 -21.5t-6 -28.5q0 -26 19 -42t60 -16q42 0 84 25t56 69z"/>
<glyph glyph-name="acircumflex" horiz-adv-x="771" unicode="â" d="M214 556l97 188h126l91 -188h-79l-77 100l-81 -100h-77zM238 338h-147q0 52 42 96q37 36 89.5 55t152.5 19q66 0 114 -12t74 -29.5t41.5 -44t19.5 -49.5t4 -53v-162q0 -32 11.5 -46t45.5 -14q31 0 68 12v-100q-74 -23 -138 -23q-129 0 -159 88q-43 -44 -106.5 -67.5 t-121.5 -23.5q-76 0 -121 42.5t-45 101.5q0 53 35 88q33 33 84 47.5t140.5 25.5t137.5 21v16q0 37 -29 60t-86 23q-86 0 -106 -71zM458 184v65q-16 -3 -45.5 -7.5t-46 -7.5t-40 -8.5t-36.5 -12t-26 -15.5t-19 -21.5t-6 -28.5q0 -26 19 -42t60 -16q42 0 84 25t56 69z"/>
<glyph glyph-name="atilde" horiz-adv-x="771" unicode="ã" d="M261 565h-59q17 146 111 146q35 0 80 -20.5t57 -20.5q16 0 26 12.5t12 30.5h61q-6 -78 -35.5 -113t-73.5 -35q-32 0 -79.5 21t-56.5 21q-30 0 -43 -42zM238 338h-147q0 52 42 96q37 36 89.5 55t152.5 19q66 0 114 -12t74 -29.5t41.5 -44t19.5 -49.5t4 -53v-162 q0 -32 11.5 -46t45.5 -14q31 0 68 12v-100q-74 -23 -138 -23q-129 0 -159 88q-43 -44 -106.5 -67.5t-121.5 -23.5q-76 0 -121 42.5t-45 101.5q0 53 35 88q33 33 84 47.5t140.5 25.5t137.5 21v16q0 37 -29 60t-86 23q-86 0 -106 -71zM458 184v65q-16 -3 -45.5 -7.5t-46 -7.5 t-40 -8.5t-36.5 -12t-26 -15.5t-19 -21.5t-6 -28.5q0 -26 19 -42t60 -16q42 0 84 25t56 69z"/>
<glyph glyph-name="adieresis" horiz-adv-x="771" unicode="ä" d="M422 579v116h111v-116h-111zM208 579v116h109v-116h-109zM238 338h-147q0 52 42 96q37 36 89.5 55t152.5 19q66 0 114 -12t74 -29.5t41.5 -44t19.5 -49.5t4 -53v-162q0 -32 11.5 -46t45.5 -14q31 0 68 12v-100q-74 -23 -138 -23q-129 0 -159 88q-43 -44 -106.5 -67.5 t-121.5 -23.5q-76 0 -121 42.5t-45 101.5q0 53 35 88q33 33 84 47.5t140.5 25.5t137.5 21v16q0 37 -29 60t-86 23q-86 0 -106 -71zM458 184v65q-16 -3 -45.5 -7.5t-46 -7.5t-40 -8.5t-36.5 -12t-26 -15.5t-19 -21.5t-6 -28.5q0 -26 19 -42t60 -16q42 0 84 25t56 69z"/>
<glyph glyph-name="aring" horiz-adv-x="771" unicode="å" d="M373 591q23 0 39.5 16.5t16.5 39.5t-16.5 39t-39.5 16t-39 -16t-16 -39t16 -39.5t39 -16.5zM376 548q-41 0 -70 28.5t-29 69.5t29 70t70 29t69.5 -29t28.5 -70q0 -40 -29 -69t-69 -29zM238 338h-147q0 52 42 96q37 36 89.5 55t152.5 19q66 0 114 -12t74 -29.5t41.5 -44 t19.5 -49.5t4 -53v-162q0 -32 11.5 -46t45.5 -14q31 0 68 12v-100q-74 -23 -138 -23q-129 0 -159 88q-43 -44 -106.5 -67.5t-121.5 -23.5q-76 0 -121 42.5t-45 101.5q0 53 35 88q33 33 84 47.5t140.5 25.5t137.5 21v16q0 37 -29 60t-86 23q-86 0 -106 -71zM458 184v65 q-16 -3 -45.5 -7.5t-46 -7.5t-40 -8.5t-36.5 -12t-26 -15.5t-19 -21.5t-6 -28.5q0 -26 19 -42t60 -16q42 0 84 25t56 69z"/>
<glyph glyph-name="ae" horiz-adv-x="1156" unicode="æ" d="M511 195v66q-29 -7 -75.5 -15t-76 -14t-60 -16t-45.5 -26t-15 -39q0 -24 22 -43.5t69 -19.5q22 0 46 4.5t52 15t51 33.5t32 54zM930 138h169q-32 -60 -106.5 -107.5t-183.5 -47.5q-198 0 -275 97q-135 -97 -276 -97q-84 0 -141.5 38t-57.5 104q0 55 41 94q33 32 97 50 t174 31.5t140 19.5v14q0 33 -37 56t-95 23q-59 0 -93 -15.5t-49 -55.5h-152q3 51 42 90q78 78 251 78q134 0 231 -63q87 63 196 63q124 0 208.5 -78t85.5 -210h-436v-11q0 -59 43 -90t112 -31q73 0 112 48zM663 295h262q0 44 -36 75t-91 31q-56 0 -94 -26.5t-41 -79.5z"/>
<glyph glyph-name="ccedilla" horiz-adv-x="688" unicode="ç" d="M645 317h-183q-22 73 -111 73q-52 0 -86 -38.5t-34 -112.5q0 -69 34 -105t85 -36q89 0 122 80h177q-6 -21 -16.5 -43t-34 -50.5t-54.5 -49.5t-81 -36t-110 -15q-137 0 -219.5 72t-82.5 191q0 113 84 188t216 75q72 0 129.5 -19.5t90.5 -51t50.5 -62t23.5 -60.5zM281 -54 h127v-52q0 -57 -37 -92h-71q32 37 43 60h-62v84z"/>
<glyph glyph-name="egrave" horiz-adv-x="708" unicode="è" d="M339 556l-115 167h153l29 -167h-67zM493 144h164q-11 -22 -30.5 -46t-53 -52t-87.5 -45.5t-117 -17.5q-69 0 -124 17.5t-88 45t-55 63t-30.5 68.5t-8.5 65q0 109 82 187.5t212 78.5q138 0 218.5 -84.5t84.5 -204.5h-416q3 -53 36 -89.5t103 -36.5q75 0 110 51zM246 295 h238q-2 43 -33 72.5t-85 29.5q-50 0 -82 -27.5t-38 -74.5z"/>
<glyph glyph-name="eacute" horiz-adv-x="708" unicode="é" d="M302 556l34 168h153l-121 -168h-66zM493 144h164q-11 -22 -30.5 -46t-53 -52t-87.5 -45.5t-117 -17.5q-69 0 -124 17.5t-88 45t-55 63t-30.5 68.5t-8.5 65q0 109 82 187.5t212 78.5q138 0 218.5 -84.5t84.5 -204.5h-416q3 -53 36 -89.5t103 -36.5q75 0 110 51zM246 295 h238q-2 43 -33 72.5t-85 29.5q-50 0 -82 -27.5t-38 -74.5z"/>
<glyph glyph-name="ecircumflex" horiz-adv-x="708" unicode="ê" d="M198 556l97 188h126l91 -188h-79l-77 100l-81 -100h-77zM493 144h164q-11 -22 -30.5 -46t-53 -52t-87.5 -45.5t-117 -17.5q-69 0 -124 17.5t-88 45t-55 63t-30.5 68.5t-8.5 65q0 109 82 187.5t212 78.5q138 0 218.5 -84.5t84.5 -204.5h-416q3 -53 36 -89.5t103 -36.5 q75 0 110 51zM246 295h238q-2 43 -33 72.5t-85 29.5q-50 0 -82 -27.5t-38 -74.5z"/>
<glyph glyph-name="edieresis" horiz-adv-x="708" unicode="ë" d="M406 579v116h111v-116h-111zM192 579v116h109v-116h-109zM493 144h164q-11 -22 -30.5 -46t-53 -52t-87.5 -45.5t-117 -17.5q-69 0 -124 17.5t-88 45t-55 63t-30.5 68.5t-8.5 65q0 109 82 187.5t212 78.5q138 0 218.5 -84.5t84.5 -204.5h-416q3 -53 36 -89.5t103 -36.5 q75 0 110 51zM246 295h238q-2 43 -33 72.5t-85 29.5q-50 0 -82 -27.5t-38 -74.5z"/>
<glyph glyph-name="igrave" horiz-adv-x="344" unicode="ì" d="M157 556l-115 167h153l29 -167h-67zM86 0v490h172v-490h-172z"/>
<glyph glyph-name="iacute" horiz-adv-x="344" unicode="í" d="M120 556l34 168h153l-121 -168h-66zM86 0v490h172v-490h-172z"/>
<glyph glyph-name="icircumflex" horiz-adv-x="344" unicode="î" d="M16 556l97 188h126l91 -188h-79l-77 100l-81 -100h-77zM86 0v490h172v-490h-172z"/>
<glyph glyph-name="idieresis" horiz-adv-x="344" unicode="ï" d="M224 579v116h111v-116h-111zM10 579v116h109v-116h-109zM86 0v490h172v-490h-172z"/>
<glyph glyph-name="eth" horiz-adv-x="708" unicode="ð" d="M361 565l-165 -47l-21 77l113 32q-36 25 -78 45l140 37q40 -20 73 -43l152 43l21 -77l-97 -28q75 -72 114 -161.5t39 -182.5q0 -127 -87 -202t-212 -75q-136 0 -216.5 78.5t-80.5 185.5q0 110 81 181.5t208 71.5q39 0 75 -12q-22 38 -59 77zM354 103q55 0 86 40.5 t31 102.5q0 63 -31 100.5t-86 37.5q-56 0 -86.5 -37t-30.5 -102q0 -64 29 -103t88 -39z"/>
<glyph glyph-name="ntilde" horiz-adv-x="740" unicode="ñ" d="M256 565h-59q17 146 111 146q35 0 80 -20.5t57 -20.5q16 0 26 12.5t12 30.5h61q-6 -78 -35.5 -113t-73.5 -35q-32 0 -79.5 21t-56.5 21q-30 0 -43 -42zM87 0v490h169v-104q53 115 201 115q100 0 151.5 -58t51.5 -135v-308h-171v257q0 112 -88 112q-58 0 -100.5 -46.5 t-42.5 -127.5v-195h-171z"/>
<glyph glyph-name="ograve" horiz-adv-x="708" unicode="ò" d="M339 556l-115 167h153l29 -167h-67zM56 247q0 111 83 186t214 75q137 0 218 -73t81 -187q0 -119 -87 -192t-212 -73q-136 0 -216.5 78.5t-80.5 185.5zM354 104q55 0 86 41t31 103q0 63 -31 101t-86 38q-56 0 -86.5 -37.5t-30.5 -102.5q0 -64 29 -103.5t88 -39.5z"/>
<glyph glyph-name="oacute" horiz-adv-x="708" unicode="ó" d="M302 556l34 168h153l-121 -168h-66zM56 247q0 111 83 186t214 75q137 0 218 -73t81 -187q0 -119 -87 -192t-212 -73q-136 0 -216.5 78.5t-80.5 185.5zM354 104q55 0 86 41t31 103q0 63 -31 101t-86 38q-56 0 -86.5 -37.5t-30.5 -102.5q0 -64 29 -103.5t88 -39.5z"/>
<glyph glyph-name="ocircumflex" horiz-adv-x="708" unicode="ô" d="M198 556l97 188h126l91 -188h-79l-77 100l-81 -100h-77zM56 247q0 111 83 186t214 75q137 0 218 -73t81 -187q0 -119 -87 -192t-212 -73q-136 0 -216.5 78.5t-80.5 185.5zM354 104q55 0 86 41t31 103q0 63 -31 101t-86 38q-56 0 -86.5 -37.5t-30.5 -102.5 q0 -64 29 -103.5t88 -39.5z"/>
<glyph glyph-name="otilde" horiz-adv-x="708" unicode="õ" d="M240 565h-59q17 146 111 146q35 0 80 -20.5t57 -20.5q16 0 26 12.5t12 30.5h61q-6 -78 -35.5 -113t-73.5 -35q-32 0 -79.5 21t-56.5 21q-30 0 -43 -42zM56 247q0 111 83 186t214 75q137 0 218 -73t81 -187q0 -119 -87 -192t-212 -73q-136 0 -216.5 78.5t-80.5 185.5z M354 104q55 0 86 41t31 103q0 63 -31 101t-86 38q-56 0 -86.5 -37.5t-30.5 -102.5q0 -64 29 -103.5t88 -39.5z"/>
<glyph glyph-name="odieresis" horiz-adv-x="708" unicode="ö" d="M406 579v116h111v-116h-111zM192 579v116h109v-116h-109zM56 247q0 111 83 186t214 75q137 0 218 -73t81 -187q0 -119 -87 -192t-212 -73q-136 0 -216.5 78.5t-80.5 185.5zM354 104q55 0 86 41t31 103q0 63 -31 101t-86 38q-56 0 -86.5 -37.5t-30.5 -102.5 q0 -64 29 -103.5t88 -39.5z"/>
<glyph glyph-name="divide" d="M242 46q0 38 27.5 65t65.5 27q37 0 64.5 -27.5t27.5 -64.5q0 -35 -27.5 -64t-63.5 -29q-38 0 -66 27.5t-28 65.5zM242 460q0 38 27.5 65.5t65.5 27.5q37 0 64.5 -28t27.5 -65q0 -35 -27.5 -63.5t-63.5 -28.5q-38 0 -66 27.5t-28 64.5zM586 193h-504v120h504v-120z" unicode="÷"/>
<glyph glyph-name="oslash" horiz-adv-x="708" unicode="ø" d="M244 190l168 182q-24 15 -58 15q-56 0 -86.5 -37.5t-30.5 -102.5q0 -35 7 -57zM508 476l68 75l67 -54l-64 -70q73 -70 73 -179q0 -119 -87 -192t-212 -73q-85 0 -151 33l-70 -76l-66 57l65 70q-75 75 -75 180q0 111 83 186t214 75q89 0 155 -32zM463 301l-168 -183 q23 -14 59 -14q55 0 86 41t31 103q0 33 -8 53z"/>
<glyph glyph-name="ugrave" horiz-adv-x="740" unicode="ù" d="M355 556l-115 167h153l29 -167h-67zM652 490v-490h-169v99q-30 -54 -81.5 -83t-117.5 -29q-91 0 -146 59t-55 167v277h170v-259q0 -56 25.5 -83t65.5 -27q53 0 95.5 47t42.5 118v204h170z"/>
<glyph glyph-name="uacute" horiz-adv-x="740" unicode="ú" d="M318 556l34 168h153l-121 -168h-66zM652 490v-490h-169v99q-30 -54 -81.5 -83t-117.5 -29q-91 0 -146 59t-55 167v277h170v-259q0 -56 25.5 -83t65.5 -27q53 0 95.5 47t42.5 118v204h170z"/>
<glyph glyph-name="ucircumflex" horiz-adv-x="740" unicode="û" d="M214 556l97 188h126l91 -188h-79l-77 100l-81 -100h-77zM652 490v-490h-169v99q-30 -54 -81.5 -83t-117.5 -29q-91 0 -146 59t-55 167v277h170v-259q0 -56 25.5 -83t65.5 -27q53 0 95.5 47t42.5 118v204h170z"/>
<glyph glyph-name="udieresis" horiz-adv-x="740" unicode="ü" d="M422 579v116h111v-116h-111zM208 579v116h109v-116h-109zM652 490v-490h-169v99q-30 -54 -81.5 -83t-117.5 -29q-91 0 -146 59t-55 167v277h170v-259q0 -56 25.5 -83t65.5 -27q53 0 95.5 47t42.5 118v204h170z"/>
<glyph glyph-name="yacute" horiz-adv-x="635" unicode="ý" d="M265 556l34 168h153l-121 -168h-66zM251 1l-227 489h180l124 -306l110 306h172l-225 -517q-39 -89 -94 -121t-155 -32h-44v127h41h6q91 0 112 54z"/>
<glyph glyph-name="thorn" horiz-adv-x="760" unicode="þ" d="M258 689v-275q34 43 83.5 67t99.5 24q106 0 184.5 -72t78.5 -190q0 -117 -76.5 -187t-181.5 -70q-136 0 -188 76v-249h-170v876h170zM408 398q-54 0 -90.5 -42t-36.5 -110q0 -77 36 -120t93 -43q59 0 86.5 43t27.5 113q0 159 -116 159z"/>
<glyph glyph-name="OE" horiz-adv-x="1135" unicode="Œ" d="M770 277v-127h364v-150h-569q-11 0 -33.5 -0.5t-34.5 -0.5q-46 -2 -68 -2q-170 0 -276.5 102t-106.5 242q0 144 101.5 247.5t264.5 103.5q11 0 33 -0.5t34 -0.5q44 -2 66 -2h574v-147h-347v-117h272v-148h-274zM424 560q-81 0 -129.5 -56.5t-48.5 -164.5q0 -98 50 -150.5 t128 -52.5q84 0 129.5 56t45.5 153q0 215 -175 215z"/>
<glyph glyph-name="oe" horiz-adv-x="1167" unicode="œ" d="M256 247q0 -69 31.5 -107.5t89.5 -38.5q57 0 92 39.5t35 105.5t-34.5 103.5t-87.5 37.5t-89.5 -37.5t-36.5 -102.5zM1115 219h-443v-7q0 -56 43.5 -90t110.5 -34q81 0 116 49h166q-7 -20 -25.5 -44t-52 -50t-91 -43t-127.5 -17q-143 0 -216 65q-85 -65 -221 -65 q-132 0 -216.5 78t-84.5 189q0 113 87 186t218 73q112 0 218 -66q87 66 227 66q130 0 208.5 -80.5t82.5 -209.5zM679 293h260q0 40 -35.5 74t-95.5 34q-55 0 -93 -30.5t-36 -77.5z"/>
<glyph glyph-name="Scaron" horiz-adv-x="771" unicode="Š" d="M384 835l80 99h78l-95 -188h-127l-91 187h77zM708 462h-158q-15 51 -60 78.5t-107 27.5q-37 0 -63.5 -6.5t-38.5 -16.5t-17 -19t-5 -18q0 -14 11 -25q18 -18 96 -35t167.5 -45t134.5 -73q57 -57 57 -130q0 -93 -86 -153.5t-237 -60.5q-104 0 -168.5 22t-108.5 66 q-71 71 -76 179h170q7 -63 57 -98.5t119 -35.5q62 0 95.5 17.5t33.5 42.5q0 17 -14 31q-19 19 -69.5 34.5t-102.5 26t-110.5 34t-91.5 56.5q-54 54 -54 128q0 76 60 138q41 41 97.5 60t148.5 19q126 0 209.5 -61.5t110.5 -182.5z"/>
<glyph glyph-name="scaron" horiz-adv-x="573" unicode="š" d="M280 636l80 99h78l-95 -188h-127l-91 187h77zM39 139h152q15 -32 44 -46q26 -11 62 -11q94 0 94 43q0 12 -9 21q-13 13 -72.5 23.5t-128 30t-100.5 51.5q-38 38 -38 91q0 70 62 119t173 49q228 0 246 -161h-139q-5 25 -29.5 42.5t-70.5 17.5q-77 0 -77 -37q0 -10 7 -19 q13 -15 67 -24.5t116.5 -26.5t95.5 -50q44 -44 44 -108q0 -14 -3 -29t-17 -39.5t-38.5 -43t-73 -32.5t-114.5 -14q-65 0 -114.5 12.5t-74.5 29.5t-40.5 40.5t-19.5 39t-4 31.5z"/>
<glyph glyph-name="Ydieresis" horiz-adv-x="792" unicode="Ÿ" d="M458 778v116h111v-116h-111zM244 778v116h109v-116h-109zM303 245l-280 445h206l186 -293l180 292h174l-276 -444v-245h-190v245z"/>
<glyph glyph-name="circumflex" horiz-adv-x="333" unicode="ˆ" d="M10 556l97 188h126l91 -188h-79l-77 100l-81 -100h-77z"/>
<glyph glyph-name="tilde" horiz-adv-x="333" unicode="˜" d="M52 565h-59q17 146 111 146q35 0 80 -20.5t57 -20.5q16 0 26 12.5t12 30.5h61q-6 -78 -35.5 -113t-73.5 -35q-32 0 -79.5 21t-56.5 21q-30 0 -43 -42z"/>
<glyph glyph-name="uni03BC" d="M594 490v-490h-150v72q-41 -84 -116 -84q-69 0 -109 54q5 -75 5 -86v-148h-151v682h151v-269q0 -49 29.5 -83t76.5 -34q50 0 82 39t32 90v257h150z" unicode="μ"/>
<glyph glyph-name="pi" horiz-adv-x="738" unicode="π" d="M708 394h-85v-225q0 -111 15 -169h-154q-20 21 -20 155v239h-165q-3 -101 -24.5 -223.5t-48.5 -170.5h-155q28 72 49.5 190.5t21.5 203.5q-86 0 -123 -11l-17 89q43 34 201 34h519z"/>
<glyph glyph-name="endash" horiz-adv-x="500" unicode="–" d="M-5 192v122h510v-122h-510z"/>
<glyph glyph-name="emdash" horiz-adv-x="1000" unicode="—" d="M-5 192v122h1010v-122h-1010z"/>
<glyph glyph-name="quoteleft" horiz-adv-x="313" unicode="‘" d="M242 524v-178h-171v108q0 40 3 70.5t14 64t29.5 56.5t51.5 39.5t78 19.5v-70q-66 -39 -67 -110h62z"/>
<glyph glyph-name="quotesinglbase" horiz-adv-x="313" unicode="‚" d="M71 0v178h171v-108q0 -40 -3 -70.5t-14 -64t-29.5 -56.5t-51.5 -39.5t-78 -19.5v70q66 39 67 110h-62z"/>
<glyph glyph-name="quotedblleft" horiz-adv-x="594" unicode="“" d="M242 524v-178h-171v108q0 40 3 70.5t14 64t29.5 56.5t51.5 39.5t78 19.5v-70q-66 -39 -67 -110h62zM524 524v-178h-171v108q0 40 3 70.5t14 64t29.5 56.5t51.5 39.5t78 19.5v-70q-66 -39 -67 -110h62z"/>
<glyph glyph-name="quotedblright" horiz-adv-x="594" unicode="”" d="M71 511v178h171v-108q0 -40 -3 -70.5t-14 -64t-29.5 -56.5t-51.5 -39.5t-78 -19.5v71q66 38 67 109h-62zM353 511v178h171v-108q0 -40 -3 -70.5t-14 -64t-29.5 -56.5t-51.5 -39.5t-78 -19.5v70q66 39 67 110h-62z"/>
<glyph glyph-name="dagger" horiz-adv-x="594" unicode="†" d="M260 450l-44 239h163l-45 -241l220 44v-161l-221 42l52 -544h-185l59 544l-218 -43v162z"/>
<glyph glyph-name="daggerdbl" horiz-adv-x="594" unicode="‡" d="M262 447l-43 242h163l-46 -242l219 42v-159l-219 41l10 -113l-13 -115l218 44v-161l-218 43l43 -241h-162l45 242l-219 -42v160l220 -45l-12 116l13 114l-220 -43v161z"/>
<glyph glyph-name="ellipsis" horiz-adv-x="1188" unicode="…" d="M113 0v180h171v-180h-171zM905 0v180h171v-180h-171zM509 0v180h171v-180h-171z"/>
<glyph glyph-name="perthousand" horiz-adv-x="1485" unicode="‰" d="M1251 255q-84 0 -84 -108q0 -54 23 -80t61 -26q37 0 58.5 26.5t21.5 77.5q0 110 -80 110zM1250 334q91 0 146.5 -53t55.5 -134q0 -78 -57 -131.5t-144 -53.5q-91 0 -148 52.5t-57 129.5q0 84 55 137t149 53zM238 411q37 0 58.5 26.5t21.5 77.5q0 110 -80 110 q-84 0 -84 -108q0 -54 23 -80t61 -26zM238 332q-91 0 -148 52.5t-57 129.5q0 84 55 137t149 53q91 0 146.5 -53t55.5 -134q0 -78 -57 -131.5t-144 -53.5zM253 -38l421 741h83l-422 -741h-82zM775 334q91 0 146.5 -53t55.5 -134q0 -78 -57 -131.5t-144 -53.5q-91 0 -148 52.5 t-57 129.5q0 84 55 137t149 53zM776 255q-84 0 -84 -108q0 -54 23 -80t61 -26q37 0 58.5 26.5t21.5 77.5q0 110 -80 110z"/>
<glyph glyph-name="guilsinglleft" horiz-adv-x="385" unicode="‹" d="M325 44h-134q-68 134 -131 222q86 126 129 223h134q-60 -132 -125 -224q76 -106 127 -221z"/>
<glyph glyph-name="guilsinglright" horiz-adv-x="385" unicode="›" d="M194 44h-134q55 122 127 221q-29 41 -66.5 109.5t-57.5 114.5h133q46 -100 130 -223q-63 -86 -132 -222z"/>
<glyph glyph-name="fraction" horiz-adv-x="63" unicode="⁄" d="M-221 -36l422 740h76l-420 -740h-78z"/>
<glyph glyph-name="Euro" horiz-adv-x="729" unicode="€" d="M667 639v-138q-62 54 -187 54q-161 0 -197 -111h338l-40 -87h-312q-1 -6 -1 -24q0 -23 1 -29h288l-40 -88h-230q33 -102 194 -102q60 0 109.5 16t76.5 38v-141q-64 -42 -202 -42q-296 0 -348 231h-98l39 88h49q-1 7 -1 28q0 18 1 25h-88l39 87h58q64 241 348 241 q68 0 122.5 -14t80.5 -32z"/>
<glyph glyph-name="trademark" horiz-adv-x="1000" unicode="™" d="M462 277v412h156l89 -239l89 239h156v-412h-108v270h-2l-91 -270h-88l-91 270h-2v-270h-108zM136 277v322h-112v90h344v-90h-112v-322h-120z"/>
<glyph glyph-name="partialdiff" horiz-adv-x="697" unicode="∂" d="M313 97h1q64 0 109.5 50t55.5 117q-10 34 -50 67t-94 33q-62 0 -103.5 -40.5t-41.5 -100.5q0 -55 35 -90.5t88 -35.5zM116 599l-48 94q93 62 234 62q149 0 248 -104.5t99 -272.5q0 -170 -98 -280.5t-254 -110.5q-65 0 -117 23t-82 59t-46 75.5t-16 77.5q0 105 73.5 177 t189.5 72q72 0 122.5 -33t73.5 -67h1q1 8 1 28q0 106 -58.5 175t-155.5 69q-93 0 -167 -44z"/>
<glyph glyph-name="product" horiz-adv-x="864" unicode="∏" d="M842 554h-129v-647h-150v647h-263v-647h-150v647h-129v121h821v-121z"/>
<glyph glyph-name="summation" horiz-adv-x="687" unicode="∑" d="M669 -93h-647v79l291 300l-275 296v93h606v-122h-390v-3l235 -251l-255 -267v-4h435v-121z"/>
<glyph glyph-name="minus" d="M586 193h-504v120h504v-120z" unicode="−"/>
<glyph glyph-name="radical" horiz-adv-x="711" unicode="√" d="M737 802l-282 -951h-121l-191 429l-86 -35l-27 71l201 82l138 -341q16 -40 27 -73h1q12 44 20 76l209 742h111z"/>
<glyph glyph-name="infinity" horiz-adv-x="845" unicode="∞" d="M616 384h-1q-15 0 -31 -5.5t-27.5 -12.5t-26.5 -21t-22 -21.5t-21.5 -24.5t-18.5 -21q49 -60 82 -83.5t70 -23.5q42 0 68 32t26 71q0 49 -27 79.5t-71 30.5zM231 171h2q22 0 42 8t42 28t31 29.5t32 35.5q-30 40 -44.5 57t-44.5 36t-63 19q-43 0 -70.5 -30.5t-27.5 -79.5 q0 -42 29 -72.5t72 -30.5zM794 281v-1q0 -83 -52.5 -134.5t-123.5 -51.5q-102 0 -197 122q-49 -59 -94 -90.5t-105 -31.5q-70 0 -121 51t-51 129q0 81 52 132.5t130 51.5q104 0 197 -119q2 2 13.5 15t15 17t15 16t17.5 16.5t17.5 14t19.5 13.5t20.5 10.5t23 9.5t24 5t27.5 2 h2q73 -1 121.5 -49.5t48.5 -127.5z"/>
<glyph glyph-name="approxequal" horiz-adv-x="653" unicode="≈" d="M556 257l54 -56q-72 -103 -164 -103q-24 0 -48 6.5t-39 13.5t-46 23q-64 33 -100 33q-37 0 -64.5 -19t-56.5 -56l-54 55q29 45 78 74.5t100 29.5q50 0 122 -37q6 -3 19 -11t20 -11.5t18.5 -8.5t22.5 -7t24 -2q33 0 58.5 18t55.5 58zM556 458l54 -56q-72 -103 -163 -103 q-35 0 -62 9.5t-72 33.5q-64 33 -101 33q-60 0 -120 -75l-54 55q29 45 77.5 74.5t100.5 29.5q55 0 123 -38q30 -17 40 -22.5t27.5 -11t36.5 -5.5q60 0 113 76z"/>
<glyph glyph-name="notequal" horiz-adv-x="653" unicode="≠" d="M479 518l-43 -92h162v-82h-199l-67 -139h266v-81h-303l-60 -128l-67 32l45 96h-158v81h195l66 139h-261v82h298l59 124z"/>
<glyph glyph-name="lessequal" horiz-adv-x="653" unicode="≤" d="M598 -7h-543v83h543v-83zM596 114l-538 231v87l538 230v-90l-446 -182v-2l446 -184v-90z"/>
<glyph glyph-name="greaterequal" horiz-adv-x="653" unicode="≥" d="M593 -7h-537v83h537v-83zM58 662l538 -231v-87l-537 -230v90l445 183v2l-446 183v90z"/>
<glyph glyph-name="lozenge" horiz-adv-x="712" unicode="◊" d="M526 333l-151 250q-15 24 -21 37h-2q-11 -22 -21 -37l-147 -244l152 -250q16 -28 20 -37h3q8 19 19 37zM658 336l-246 -385h-114l-244 385l244 386h114z"/>
</font>
</defs>
</svg>
